<?xml version="1.0" encoding="UTF-8" standalone="no"?>
<svg
   width="2000"
   height="850"
   viewBox="0 0 2000 850"
   version="1.1"
   id="svg7"
   xmlns="http://www.w3.org/2000/svg"
   xmlns:svg="http://www.w3.org/2000/svg">
  <defs
     id="defs1">
    <style
       id="style1">
      .serif { font-family: 'GFS Didot', 'Noto Serif Display', serif; }
      .sans { font-family: 'Inter', 'Lato', sans-serif; }
    </style>
  </defs>
  <g
     fill="none"
     stroke-linecap="round"
     stroke-linejoin="round"
     id="g2">
    <circle
       cx="300"
       cy="425"
       r="185"
       stroke="#ffffff"
       stroke-width="7.40"
       id="circle1" />
    <circle
       cx="300"
       cy="425"
       r="162.80"
       stroke="#ffffff"
       stroke-width="2.22"
       opacity="0.95"
       id="circle2" />
    <path
       d="M 153.85 360.25 C 198.25 314.00, 277.80 295.50, 361.05 301.05 C 412.85 306.60, 457.25 328.80, 486.85 358.40"
       stroke="#ffffff"
       stroke-width="7.03"
       id="path2" />
  </g>
  <g
     id="g3">
    <path
       d="m 322.8327,476.11179 c 0.8732,0.8732 1.0915,1.7464 1.0915,2.6196 0,1.0915 -1.0915,1.9647 -3.0562,2.4013 h -6.1124 l -0.2183,6.9856 c 23.1398,-0.4366 39.7306,-0.4366 50.4273,0 v -6.549 c -7.8588,-0.6549 -13.098,-2.4013 -15.4993,-5.4575 l -44.7515,-60.6874 c 12.6614,-0.8732 23.1398,-4.5843 30.9986,-11.1333 8.0771,-7.2039 12.2248,-16.3725 12.2248,-27.9424 0,-11.5699 -4.366,-21.1751 -13.098,-27.7241 -9.3869,-7.2039 -23.1398,-11.1333 -40.8221,-11.1333 h -66.1449 v 6.7673 h 20.3019 v 136.8741 h -20.3019 v 6.7673 h 60.6874 v -6.7673 h -20.3019 l -0.4366,-64.6168 h 13.3163 z m 2.8379,-100.1997 c 0.6549,22.9215 -12.2248,34.2731 -38.8574,34.2731 h -18.9921 l 0.4366,-65.9266 h 23.1398 c 22.0483,0 33.6182,10.4784 34.2731,31.6535 z"
       id="text2"
       class="serif"
       style="font-size:218.3px;font-family:'GFS Didot', 'Noto Serif Display', serif;opacity:0.9801;fill:#ffffff"
       aria-label="R" />
    <path
       d="m 435.73451,462.71041 c -8.8023,8.8023 -16.7018,14.8962 -24.1499,18.2817 -9.028,4.2883 -19.8616,6.3196 -32.5008,6.0939 -12.8649,-0.2257 -23.0214,-7.2224 -30.6952,-20.5387 -7.4481,-13.542 -11.285,-31.1466 -11.285,-52.5881 0,-48.5255 14.6705,-73.3525 43.7858,-74.7067 27.084,-1.1285 37.4662,10.8336 39.4975,36.7891 h 6.771 v -35.4349 c -7.6738,-2.9341 -13.0906,-4.7397 -16.4761,-5.4168 -7.6738,-1.5799 -17.8303,-2.4827 -30.4695,-2.4827 -19.4102,0 -35.6606,7.2224 -48.7512,21.8929 -13.542,15.1219 -20.313,34.9835 -20.5387,59.3591 -0.2257,22.3443 6.5453,41.5288 20.0873,57.5535 13.542,15.799 30.0181,23.6985 49.2026,23.6985 13.3163,0 24.1499,-2.0313 32.7265,-5.8682 9.4794,-4.2883 18.056,-11.9621 25.9555,-23.0214 z"
       id="text3"
       class="serif"
       style="font-size:225.7px;font-family:'GFS Didot', 'Noto Serif Display', serif;fill:none;stroke:#ffffff;stroke-width:4.81;paint-order:stroke fill markers"
       aria-label="C" />
  </g>
  <g
     transform="translate(300.00,539.70)"
     id="g5">
    <path
       d="M -18.50 -12.95 C -29.60 -1.85, -31.45 12.95, -24.05 25.90 C -11.10 18.50, -7.40 3.70, -9.25 -11.10 Z"
       fill="#ffffff"
       opacity="0.98"
       id="path3" />
    <path
       d="M 0 -22.20 C -9.25 -9.25, -9.25 7.40, 0 22.20 C 9.25 7.40, 9.25 -9.25, 0 -22.20 Z"
       fill="#ffffff"
       id="path4" />
    <path
       d="M 18.50 -12.95 C 29.60 -1.85, 31.45 12.95, 24.05 25.90 C 11.10 18.50, 7.40 3.70, 9.25 -11.10 Z"
       fill="#ffffff"
       opacity="0.98"
       id="path5" />
  </g>
  <g
     transform="translate(690,275)"
     id="g7">
    <path
       d="m 60.97,-7.02 c 0.52,0.52 0.65,1.04 0.65,1.56 0,0.65 -0.65,1.17 -1.82,1.43 h -3.64 l -0.13,4.16 c 13.78,-0.26 23.66,-0.26 30.03,0 v -3.9 C 81.38,-4.16 78.26,-5.2 76.83,-7.02 L 50.18,-43.16 c 7.54,-0.52 13.78,-2.73 18.46,-6.63 4.81,-4.29 7.28,-9.75 7.28,-16.64 0,-6.89 -2.6,-12.61 -7.8,-16.51 -5.59,-4.29 -13.78,-6.63 -24.31,-6.63 H 4.42 v 4.03 H 16.51 V -4.03 H 4.42 V 0 H 40.56 V -4.03 H 28.47 l -0.26,-38.48 h 7.93 z m 1.69,-59.67 c 0.39,13.65 -7.28,20.41 -23.14,20.41 H 28.21 l 0.26,-39.26 h 13.78 c 13.13,0 20.02,6.24 20.41,18.85 z m 118.07012,22.36 c 0,-14.43 -3.51,-26 -10.66,-34.58 -7.02,-8.71 -16.64,-13 -28.73,-13 -11.31,0 -20.67,4.16 -28.08,12.61 -7.67,8.84 -11.57,20.28 -11.7,34.19 -0.13,13 3.64,24.05 11.44,33.28 7.93,9.1 17.29,13.65 28.34,13.65 11.31,0 20.67,-4.42 28.08,-13.39 7.54,-8.97 11.31,-19.89 11.31,-32.76 z m -14.43,-0.26 c 0,12.48 -1.95,22.36 -5.98,29.77 -4.29,8.06 -10.53,12.09 -18.59,12.09 -17.16,0 -25.74,-14.17 -25.74,-42.38 0,-13.52 1.69,-23.79 5.2,-30.68 4.16,-8.06 10.92,-12.09 20.15,-12.09 8.71,0 15.21,4.29 19.5,12.74 3.64,7.28 5.46,17.42 5.46,30.55 z m 94.41007,15.99 c 0,-13.78 -9.75,-21.71 -28.99,-23.79 -13.78,-1.43 -20.67,-7.15 -20.8,-17.03 -0.13,-11.05 5.98,-16.77 18.59,-17.03 12.87,-0.13 19.24,5.07 20.41,18.07 h 3.9 v -23.27 h -3.64 c -0.39,1.3 -1.3,1.95 -2.6,1.95 -2.73,0 -8.45,-2.21 -15.08,-2.21 -8.58,0 -15.86,2.08 -21.84,6.24 -7.02,4.81 -10.53,11.96 -10.53,20.93 0,13.26 9.23,20.93 27.69,23.14 6.76,0.78 12.09,2.6 15.99,5.85 4.16,3.64 6.24,8.19 6.24,13.91 -0.13,5.33 -2.34,9.62 -6.89,12.87 -4.42,2.99 -9.75,4.68 -15.73,4.81 -5.2,0.13 -12.61,-2.08 -15.99,-4.81 -3.51,-2.99 -5.59,-7.8 -6.11,-14.82 h -3.9 l -0.13,20.67 c 7.93,2.99 15.08,4.42 21.19,4.42 10.53,0 19.24,-2.34 26.13,-6.89 8.06,-5.33 12.09,-13 12.09,-23.01 z m 91.29006,-2.47 c -0.39,8.71 -3.25,15.47 -8.32,20.28 -1.69,1.69 -4.16,3.12 -7.67,4.42 -3.38,1.3 -6.24,1.95 -8.71,1.95 l -24.31,0.39 v -39.39 h 15.86 c 6.37,0 11.31,5.72 11.31,16.25 h 4.03 v -36.01 h -4.03 c 0,5.33 -1.04,9.36 -2.99,12.09 -1.82,2.21 -4.55,3.25 -8.32,3.25 h -15.86 v -37.7 l 22.23,0.26 c 16.51,0.39 22.49,7.41 23.66,22.1 h 4.03 l -0.26,-26.39 h -73.45 v 4.03 h 12.22 v 81.51 h -12.22 V 0 h 75.53 l 1.43,-31.07 z m 151.11988,14.43 c -5.07,5.07 -9.62,8.58 -13.91,10.53 -5.2,2.47 -11.44,3.64 -18.72,3.51 -7.41,-0.13 -13.26,-4.16 -17.68,-11.83 -4.29,-7.8 -6.5,-17.94 -6.5,-30.29 0,-27.95 8.45,-42.25 25.22,-43.03 15.6,-0.65 21.58,6.24 22.75,21.19 h 3.9 v -20.41 c -4.42,-1.69 -7.54,-2.73 -9.49,-3.12 -4.42,-0.91 -10.27,-1.43 -17.55,-1.43 -11.18,0 -20.54,4.16 -28.08,12.61 -7.8,8.71 -11.7,20.15 -11.83,34.19 -0.13,12.87 3.77,23.92 11.57,33.15 7.8,9.1 17.29,13.65 28.34,13.65 7.67,0 13.91,-1.17 18.85,-3.38 5.46,-2.47 10.4,-6.89 14.95,-13.26 z m 55.53998,12.61 h -12.09 v -81.51 h 12.09 v -4.03 h -37.18 v 4.03 h 12.22 v 81.51 h -12.22 V 0 h 37.18 z m 98.3099,-85.54 h -78.26 l -0.26,26.39 h 3.77 c 0.78,-7.67 2.86,-13.26 6.11,-16.51 3.25,-3.25 9.23,-5.2 17.68,-5.59 l 5.85,-0.26 v 81.51 h -12.09 V 0 h 36.14 v -4.03 h -12.22 v -81.51 l 5.98,0.26 c 8.45,0.39 14.43,2.34 17.81,5.85 3.38,3.51 5.33,8.84 5.85,16.25 h 3.9 z m 98.9599,0 h -28.47 l -0.13,4.29 c 4.29,-0.13 6.89,0.13 7.54,0.78 1.43,1.17 2.08,2.21 2.08,3.25 0,2.21 -1.3,5.72 -3.9,10.27 l -14.82,28.99 c -7.8,-14.43 -15.6,-28.99 -23.53,-43.55 h 9.62 v -4.03 h -33.93 v 4.03 h 9.88 l 28.6,50.31 V -3.9 l -11.96,-0.13 V 0 l 36.66,0.13 v -4.16 l -12.48,0.13 v -31.98 l 18.85,-36.53 c 2.47,-5.2 4.55,-8.71 6.5,-10.53 1.43,-1.43 4.55,-1.95 9.62,-1.82 z"
       id="text5"
       class="serif"
       style="font-size:130px;font-family:'GFS Didot', 'Noto Serif Display', serif;letter-spacing:9;fill:#ffffff"
       aria-label="ROSE CITY" />
    <rect
       x="0"
       y="48"
       width="810"
       height="2.6"
       fill="#ffffff"
       opacity="0.90"
       id="rect5" />
    <path
       d="m 15.328125,130 c 10.640625,0 16.898437,-6.58594 16.898437,-17.50781 0,-10.85156 -6.257812,-17.414065 -16.664062,-17.414065 H 3.515625 V 130 Z M 9.7734375,124.58594 V 100.49219 H 15.1875 c 7.148437,0 10.875,4.00781 10.875,12 0,8.0625 -3.726563,12.09375 -11.039062,12.09375 z M 57.179687,130 h 22.78125 v -5.27344 H 63.4375 v -9.75 h 15.210937 v -5.20312 H 63.4375 v -9.42188 h 16.429687 v -5.273435 h -22.6875 z m 46.492193,-29.64844 h 10.78125 V 130 h 6.25781 v -29.64844 h 10.75781 V 95.078125 H 103.67188 Z M 149.39062,130 h 6.84375 l 2.85938,-8.64844 h 13.05469 L 175.125,130 h 6.86719 L 169.52344,95.078125 h -7.94532 z m 11.36719,-13.6875 1.47656,-4.45312 c 0.96094,-3.11719 2.01563,-7.03125 3.25782,-11.906255 1.28906,4.828125 2.39062,8.695315 3.42187,11.906255 l 1.52344,4.45312 z m 51.15625,-21.234375 h -6.25781 V 130 h 6.25781 z M 237.94531,130 H 259.625 v -5.27344 H 244.20312 V 95.078125 h -6.25781 z m 52.39844,-34.921875 h -6.25781 V 130 h 6.25781 z M 316.375,130 h 6.375 v -17.34375 c 0,-1.94531 -0.21094,-5.625 -0.44531,-9.9375 2.34375,4.54688 3.65625,7.03125 5.48437,9.96094 L 338.6875,130 h 7.10156 V 95.078125 h -6.35156 v 18.328125 c 0,2.13281 0.14062,5.67188 0.375,9.04688 -1.52344,-3.49219 -3.04688,-6.14063 -4.28906,-8.13282 L 323.45312,95.078125 H 316.375 Z m 70.51562,0.46875 c 8.625,0 14.8125,-5.55469 14.8125,-14.53125 v -4.19531 h -14.13281 v 4.92187 h 8.0625 c -0.11719,5.01563 -3.46875,8.20313 -8.71875,8.20313 -5.88281,0 -9.91406,-4.42969 -9.91406,-12.32813 0,-7.92187 4.125,-12.32812 9.77344,-12.32812 4.24218,0 7.10156,2.29687 8.22656,6.02344 h 6.39844 c -1.07813,-6.867193 -7.00782,-11.625005 -14.69532,-11.625005 -9.14062,0 -15.98437,6.726565 -15.98437,17.976565 0,11.03906 6.53906,17.88281 16.17187,17.88281 z"
       id="text6"
       class="sans"
       style="font-weight:600;font-size:48px;font-family:Inter, Lato, sans-serif;letter-spacing:19;fill:#ffffff"
       aria-label="DETAILING" />
    <path
       d="m 6.5541992,194 h 3.2226563 l 2.8808595,-10.77881 c 0.354004,-1.34277 0.598144,-2.68555 0.866699,-4.1748 0.268555,1.5747 0.549316,2.9541 0.866699,4.1748 L 17.28418,194 h 3.210449 l 4.956055,-18.18848 h -2.954102 l -2.624512,10.42481 c -0.378418,1.58691 -0.720215,3.32031 -1.037597,5.0415 -0.341797,-1.72119 -0.683594,-3.45459 -1.098633,-5.0415 L 15.0625,175.81152 h -3.051758 l -2.6977537,10.42481 c -0.4150391,1.59912 -0.769043,3.35693 -1.0986328,5.11474 -0.3051758,-1.75781 -0.6469727,-3.51562 -1.0375977,-5.11474 L 4.5522461,175.81152 H 1.6225586 Z M 40.870605,175.81152 H 38.087402 V 194 h 2.783203 z M 54.898926,194 h 2.819824 v -9.70459 c 0,-0.93994 -0.09766,-2.81982 -0.20752,-5.10254 1.31836,2.44141 2.014161,3.69873 2.905274,5.12695 L 66.556641,194 h 3.222656 v -18.18848 h -2.819824 v 10.35157 c 0,1.0498 0.04883,2.74658 0.183105,4.50439 -0.805664,-1.74561 -1.623535,-3.125 -2.185058,-4.02832 l -6.848145,-10.82764 h -3.210449 z m 34.829101,0 c 5.529785,0 8.740235,-3.43018 8.740235,-9.11865 0,-5.65186 -3.21045,-9.06983 -8.569336,-9.06983 H 83.807617 V 194 Z m -3.137207,-2.44141 v -13.30566 h 3.125 c 3.967285,0 6.018067,2.35596 6.018067,6.62842 0,4.30908 -2.050782,6.67724 -6.164551,6.67724 z m 31.36231,2.74659 c 4.27246,0 6.73828,-2.2461 6.73828,-5.33448 0,-3.28369 -2.91748,-4.52881 -5.23682,-5.12695 l -1.77002,-0.46387 c -1.3916,-0.36621 -3.27148,-1.01318 -3.27148,-2.73437 0,-1.53809 1.3916,-2.66114 3.60107,-2.66114 2.06299,0 3.54004,0.95215 3.72314,2.61231 h 2.70997 c -0.0855,-2.89307 -2.63672,-5.0293 -6.37207,-5.0293 -3.66211,0 -6.44532,2.08741 -6.44532,5.23682 0,2.49023 1.75782,4.01611 4.73633,4.80957 l 2.12402,0.58594 c 1.95313,0.5249 3.45459,1.14746 3.45459,2.73437 0,1.75781 -1.69677,2.92969 -4.0039,2.92969 -2.09961,0 -3.85742,-0.92773 -4.01612,-2.91748 h -2.79541 c 0.1709,3.32031 2.73438,5.35889 6.82374,5.35889 z m 27.62695,-0.061 c 4.71191,0 8.19092,-3.51562 8.19092,-9.32617 0,-5.83496 -3.47901,-9.35059 -8.19092,-9.35059 -4.72412,0 -8.21533,3.51563 -8.21533,9.35059 0,5.81055 3.49121,9.32617 8.21533,9.32617 z m 0,-2.53906 c -3.125,0 -5.45654,-2.39258 -5.45654,-6.78711 0,-4.40674 2.33154,-6.81152 5.45654,-6.81152 3.10058,0 5.43213,2.39257 5.43213,6.81152 0,4.39453 -2.33155,6.78711 -5.43213,6.78711 z M 167.16455,194 h 2.7832 v -6.87256 h 3.71094 c 0.0488,0 0.10986,0 0.15869,0 L 177.50391,194 h 3.16162 l -4.00391,-7.34863 c 2.20947,-0.83008 3.32031,-2.68555 3.32031,-5.12696 0,-3.35693 -2.0874,-5.71289 -6.29882,-5.71289 h -6.51856 z m 2.7832,-9.25293 v -6.55518 h 3.41797 c 2.68555,0 3.79639,1.28174 3.79639,3.33252 0,2.03858 -1.11084,3.22266 -3.77197,3.22266 z m 44.73145,4.06494 c 2.16064,0 3.90625,-1.7456 3.90625,-3.90625 0,-2.16064 -1.74561,-3.90625 -3.90625,-3.90625 -2.16065,0 -3.90625,1.74561 -3.90625,3.90625 0,2.16065 1.7456,3.90625 3.90625,3.90625 z m 42.9248,5.43213 c 4.71192,0 8.19092,-3.51562 8.19092,-9.32617 0,-5.83496 -3.479,-9.35059 -8.19092,-9.35059 -4.72412,0 -8.21533,3.51563 -8.21533,9.35059 0,5.81055 3.49121,9.32617 8.21533,9.32617 z m 0,-2.53906 c -3.125,0 -5.45654,-2.39258 -5.45654,-6.78711 0,-4.40674 2.33154,-6.81152 5.45654,-6.81152 3.10059,0 5.43213,2.39257 5.43213,6.81152 0,4.39453 -2.33154,6.78711 -5.43213,6.78711 z M 279.18848,194 h 2.81982 v -9.70459 c 0,-0.93994 -0.0977,-2.81982 -0.20752,-5.10254 1.31836,2.44141 2.01416,3.69873 2.90527,5.12695 L 290.84619,194 h 3.22266 v -18.18848 h -2.81983 v 10.35157 c 0,1.0498 0.0488,2.74658 0.18311,4.50439 -0.80567,-1.74561 -1.62354,-3.125 -2.18506,-4.02832 l -6.84814,-10.82764 h -3.21045 z m 27.99316,-15.7959 h 5.67627 V 194 h 2.79541 v -15.7959 h 5.65186 v -2.39258 H 307.18164 Z M 330.86572,194 h 3.01514 l 1.62353,-4.79736 h 7.15332 L 344.33008,194 h 3.01513 l -6.59179,-18.18848 h -3.41797 z m 5.43213,-7.1167 1.01319,-3.00293 c 0.45166,-1.3916 1.01318,-3.28369 1.72119,-5.88379 0.72021,2.57569 1.26953,4.43115 1.75781,5.88379 l 1.0498,3.00293 z M 359.98193,194 h 2.78321 v -6.87256 h 3.71093 c 0.0488,0 0.10987,0 0.1587,0 L 370.32129,194 h 3.16162 l -4.00391,-7.34863 c 2.20948,-0.83008 3.32032,-2.68555 3.32032,-5.12696 0,-3.35693 -2.08741,-5.71289 -6.29883,-5.71289 h -6.51856 z m 2.78321,-9.25293 v -6.55518 h 3.41797 c 2.68554,0 3.79638,1.28174 3.79638,3.33252 0,2.03858 -1.11084,3.22266 -3.77197,3.22266 z m 26.19873,-8.93555 h -2.78321 V 194 h 2.78321 z m 21.60888,18.43262 c 4.71192,0 8.19092,-3.51562 8.19092,-9.32617 0,-5.83496 -3.479,-9.35059 -8.19092,-9.35059 -4.72412,0 -8.21533,3.51563 -8.21533,9.35059 0,5.81055 3.49121,9.32617 8.21533,9.32617 z m 0,-2.53906 c -3.125,0 -5.45654,-2.39258 -5.45654,-6.78711 0,-4.40674 2.33154,-6.81152 5.45654,-6.81152 3.10059,0 5.43213,2.39257 5.43213,6.81152 0,4.39453 -2.33154,6.78711 -5.43213,6.78711 z"
       id="text7"
       class="sans"
       style="font-weight:500;font-size:25px;font-family:Inter, Lato, sans-serif;letter-spacing:10;opacity:0.9025;fill:#ffffff"
       aria-label="WINDSOR • ONTARIO" />
  </g>
</svg>
