<?xml version="1.0" encoding="UTF-8" standalone="no"?>
<svg
   width="1200"
   height="1400"
   viewBox="0 0 1200 1400"
   version="1.1"
   id="svg7"
   xmlns="http://www.w3.org/2000/svg"
   xmlns:svg="http://www.w3.org/2000/svg">
  <defs
     id="defs1">
    <style
       id="style1">
      .serif { font-family: 'GFS Didot', 'Noto Serif Display', serif; }
      .sans { font-family: 'Inter', 'Lato', sans-serif; }
    </style>
  </defs>
  <g
     fill="none"
     stroke-linecap="round"
     stroke-linejoin="round"
     id="g2">
    <circle
       cx="600"
       cy="430"
       r="235"
       stroke="#8e2a3c"
       stroke-width="9.40"
       id="circle1" />
    <circle
       cx="600"
       cy="430"
       r="206.80"
       stroke="#b5314a"
       stroke-width="2.82"
       opacity="0.95"
       id="circle2" />
    <path
       d="M 414.35 347.75 C 470.75 289.00, 571.80 265.50, 677.55 272.55 C 743.35 279.60, 799.75 307.80, 837.35 345.40"
       stroke="#b5314a"
       stroke-width="8.93"
       id="path2" />
  </g>
  <g
     id="g3">
    <path
       d="m 629.00371,494.92579 c 1.1092,1.1092 1.3865,2.2184 1.3865,3.3276 0,1.3865 -1.3865,2.4957 -3.8822,3.0503 h -7.7644 l -0.2773,8.8736 c 29.3938,-0.5546 50.46859,-0.5546 64.05629,0 v -8.319 c -9.9828,-0.8319 -16.638,-3.0503 -19.6883,-6.9325 L 605.98781,417.8364 c 16.0834,-1.1092 29.3938,-5.8233 39.3766,-14.1423 10.2601,-9.1509 15.5288,-20.7975 15.5288,-35.4944 0,-14.6969 -5.546,-26.8981 -16.638,-35.2171 -11.9239,-9.1509 -29.3938,-14.1423 -51.8551,-14.1423 h -84.0219 v 8.5963 h 25.7889 v 173.86709 h -25.7889 v 8.5963 h 77.0894 v -8.5963 h -25.7889 l -0.5546,-82.08079 h 16.9153 z m 3.6049,-127.28069 c 0.8319,29.1165 -15.5288,43.5361 -49.3594,43.5361 h -24.1251 l 0.5546,-83.7446 h 29.3938 c 28.0073,0 42.7042,13.3104 43.5361,40.2085 z"
       id="text2"
       class="serif"
       style="font-size:277.3px;font-family:'GFS Didot', 'Noto Serif Display', serif;opacity:0.9801;fill:#8e2a3c"
       aria-label="R" />
    <path
       d="m 772.41952,477.90237 c -11.1813,11.1813 -21.2158,18.9222 -30.6769,23.22271 -11.468,5.4473 -25.2296,8.0276 -41.2848,7.7409 -16.3419,-0.2867 -29.2434,-9.17441 -38.99121,-26.08971 -9.4611,-17.202 -14.335,-39.5646 -14.335,-66.8011 0,-61.6405 18.6355,-93.1775 55.61981,-94.8977 34.404,-1.4335 47.5922,13.7616 50.1725,46.7321 h 8.601 v -45.0119 c -9.7478,-3.7271 -16.6286,-6.0207 -20.9291,-6.8808 -9.7478,-2.0069 -22.6493,-3.1537 -38.7045,-3.1537 -24.6562,0 -45.29861,9.1744 -61.92721,27.8099 -17.202,19.2089 -25.803,44.4385 -26.0897,75.4021 -0.2867,28.3833 8.3143,52.7528 25.5163,73.1085 17.202,20.06901 38.13111,30.10351 62.50061,30.10351 16.9153,0 30.6769,-2.5803 41.5715,-7.4542 12.0414,-5.4473 22.936,-15.19511 32.9705,-29.24341 z"
       id="text3"
       class="serif"
       style="font-size:286.7px;font-family:'GFS Didot', 'Noto Serif Display', serif;fill:none;stroke:#b5314a;stroke-width:6.11;paint-order:stroke fill markers"
       aria-label="C" />
  </g>
  <g
     transform="translate(600.00,575.70)"
     id="g5">
    <path
       d="M -23.50 -16.45 C -37.60 -2.35, -39.95 16.45, -30.55 32.90 C -14.10 23.50, -9.40 4.70, -11.75 -14.10 Z"
       fill="#b5314a"
       opacity="0.98"
       id="path3" />
    <path
       d="M 0 -28.20 C -11.75 -11.75, -11.75 9.40, 0 28.20 C 11.75 9.40, 11.75 -11.75, 0 -28.20 Z"
       fill="#8e2a3c"
       id="path4" />
    <path
       d="M 23.50 -16.45 C 37.60 -2.35, 39.95 16.45, 30.55 32.90 C 14.10 23.50, 9.40 4.70, 11.75 -14.10 Z"
       fill="#b5314a"
       opacity="0.98"
       id="path5" />
  </g>
  <g
     transform="translate(600,910)"
     id="g7">
    <path
       d="m -300.45996,-6.48 c 0.48,0.48 0.6,0.96 0.6,1.44 0,0.6 -0.6,1.08 -1.68,1.32 h -3.36 l -0.12,3.84 c 12.72,-0.24 21.84,-0.24 27.72,0 v -3.6 c -4.32,-0.36 -7.2,-1.32 -8.52,-3 l -24.6,-33.36 c 6.96,-0.48 12.72,-2.52 17.04,-6.12 4.44,-3.96 6.72,-9 6.72,-15.36 0,-6.36 -2.4,-11.64 -7.2,-15.24 -5.16,-3.96 -12.72,-6.12 -22.44,-6.12 h -36.36 v 3.72 h 11.16 v 75.24 h -11.16 V 0 h 33.36 v -3.72 h -11.16 l -0.24,-35.52 h 7.32 z m 1.56,-55.08 c 0.36,12.6 -6.72,18.84 -21.36,18.84 h -10.44 l 0.24,-36.24 h 12.72 c 12.12,0 18.48,5.76 18.84,17.4 z m 110.68011,20.64 c 0,-13.32 -3.24,-24 -9.84,-31.92 -6.48,-8.04 -15.36,-12 -26.52,-12 -10.44,0 -19.08,3.84 -25.92,11.64 -7.08,8.16 -10.68,18.72 -10.8,31.56 -0.12,12 3.36,22.2 10.56,30.72 7.32,8.4 15.96,12.6 26.16,12.6 10.44,0 19.08,-4.08 25.92,-12.36 6.96,-8.28 10.44,-18.36 10.44,-30.24 z m -13.32,-0.24 c 0,11.52 -1.8,20.64 -5.52,27.48 -3.96,7.44 -9.72,11.16 -17.16,11.16 -15.84,0 -23.76,-13.08 -23.76,-39.12 0,-12.48 1.56,-21.96 4.8,-28.32 3.84,-7.44 10.08,-11.16 18.6,-11.16 8.04,0 14.04,3.96 18,11.76 3.36,6.72 5.04,16.08 5.04,28.2 z m 88.84005,14.76 c 0,-12.72 -9,-20.04 -26.76,-21.96 -12.72,-1.32 -19.08,-6.6 -19.2,-15.72 -0.12,-10.2 5.52,-15.48 17.16,-15.72 11.88,-0.12 17.76,4.68 18.84,16.68 h 3.6 V -84.6 h -3.36 c -0.36,1.2 -1.2,1.8 -2.4,1.8 -2.52,0 -7.8,-2.04 -13.92,-2.04 -7.92,0 -14.64,1.92 -20.16,5.76 -6.48,4.44 -9.72,11.04 -9.72,19.32 0,12.24 8.52,19.32 25.56,21.36 6.24,0.72 11.16,2.4 14.76,5.4 3.84,3.36 5.76,7.56 5.76,12.84 -0.12,4.92 -2.16,8.88 -6.36,11.88 -4.08,2.76 -9,4.32 -14.52,4.44 -4.8,0.12 -11.64,-1.92 -14.76,-4.44 -3.24,-2.76 -5.16,-7.2 -5.64,-13.68 h -3.6 l -0.12,19.08 c 7.32,2.76 13.92,4.08 19.56,4.08 9.72,0 17.76,-2.16 24.12,-6.36 7.44,-4.92 11.16,-12 11.16,-21.24 z m 85.960077,-2.28 c -0.36,8.04 -3,14.28 -7.68,18.72 -1.56,1.56 -3.84,2.88 -7.08,4.08 -3.12,1.2 -5.76,1.8 -8.04,1.8 l -22.44,0.36 v -36.36 h 14.64 c 5.88,0 10.44,5.28 10.44,15 h 3.72 v -33.24 h -3.72 c 0,4.92 -0.96,8.64 -2.76,11.16 -1.68,2.04 -4.2,3 -7.68,3 h -14.64 v -34.8 l 20.52,0.24 c 15.24,0.36 20.76,6.84 21.84,20.4 h 3.72 l -0.24,-24.36 h -67.8 v 3.72 h 11.28 v 75.24 h -11.28 V 0 h 69.72 l 1.32,-28.68 z m 142.879883,13.32 c -4.68,4.68 -8.88,7.92 -12.84,9.72 -4.800005,2.28 -10.560005,3.36 -17.280005,3.24 -6.84,-0.12 -12.24,-3.84 -16.32,-10.92 -3.96,-7.2 -6,-16.56 -6,-27.96 0,-25.8 7.8,-39 23.28,-39.72 14.400005,-0.6 19.920005,5.76 21.000005,19.56 h 3.6 v -18.84 c -4.08,-1.56 -6.96,-2.52 -8.76,-2.88 -4.080005,-0.84 -9.480005,-1.32 -16.200005,-1.32 -10.32,0 -18.96,3.84 -25.92,11.64 -7.2,8.04 -10.8,18.6 -10.92,31.56 -0.12,11.88 3.48,22.08 10.68,30.6 7.2,8.4 15.96,12.6 26.16,12.6 7.08,0 12.84,-1.08 17.400005,-3.12 5.04,-2.28 9.6,-6.36 13.8,-12.24 z m 52.95999,11.64 h -11.16 v -75.24 h 11.16 v -3.72 h -34.32 v 3.72 h 11.28 v 75.24 h -11.28 V 0 h 34.32 z m 92.43988,-78.96 h -72.24 l -0.24,24.36 h 3.48 c 0.72,-7.08 2.64,-12.24 5.64,-15.24 3,-3 8.52,-4.8 16.32,-5.16 l 5.4,-0.24 v 75.24 h -11.16 V 0 h 33.36 v -3.72 h -11.28 v -75.24 l 5.52,0.24 c 7.8,0.36 13.32,2.16 16.44,5.4 3.12,3.24 4.92,8.16 5.4,15 h 3.6 z m 93.03991,0 h -26.28 l -0.12,3.96 c 3.96,-0.12 6.36,0.12 6.96,0.72 1.32,1.08 1.92,2.04 1.92,3 0,2.04 -1.2,5.28 -3.6,9.48 l -13.68,26.76 c -7.2,-13.32 -14.4,-26.76 -21.72,-40.2 h 8.88 v -3.72 h -31.32 v 3.72 h 9.12 l 26.4,46.44 V -3.6 l -11.04,-0.12 V 0 l 33.84,0.12 v -3.84 l -11.52,0.12 v -29.52 l 17.4,-33.72 c 2.28,-4.8 4.2,-8.04 6,-9.72 1.32,-1.32 4.2,-1.8 8.88,-1.68 z"
       id="text5"
       class="serif"
       style="font-size:120px;font-family:'GFS Didot', 'Noto Serif Display', serif;letter-spacing:10;text-anchor:middle;fill:#8e2a3c"
       aria-label="ROSE CITY" />
    <rect
       x="-340"
       y="45"
       width="680"
       height="2.4"
       fill="#b5314a"
       opacity="0.90"
       id="rect5" />
    <path
       d="m -178.18408,123 c 10.19726,0 16.19433,-6.31152 16.19433,-16.77832 0,-10.399414 -5.99707,-16.688477 -15.96972,-16.688477 h -11.54492 V 123 Z m -5.32324,-5.18848 V 94.72168 h 5.18847 c 6.85059,0 10.42188,3.84082 10.42188,11.5 0,7.72656 -3.57129,11.58984 -10.5791,11.58984 z M -138.28467,123 h 21.83203 v -5.05371 h -15.83496 v -9.34375 h 14.57715 v -4.98633 h -14.57715 v -9.029296 h 15.74512 v -5.053711 h -21.74219 z m 44.346682,-28.413086 h 10.332031 V 123 h 5.99707 V 94.586914 h 10.309571 V 89.533203 H -93.937988 Z M -50.33252,123 h 6.558594 l 2.740235,-8.28809 h 12.510742 L -25.67041,123 h 6.581055 L -31.038574,89.533203 h -7.614258 z m 10.893555,-13.11719 1.415039,-4.26758 c 0.920899,-2.9873 1.931641,-6.738277 3.122071,-11.410152 1.235351,4.626953 2.291015,8.333012 3.279296,11.410152 l 1.459961,4.26758 z M 9.3774414,89.533203 H 3.3803711 V 123 H 9.3774414 Z M 34.115723,123 H 54.89209 v -5.05371 H 40.112793 V 89.533203 h -5.99707 z M 84.122559,89.533203 H 78.125488 V 123 h 5.997071 z M 108.86084,123 h 6.10937 v -16.62109 c 0,-1.86426 -0.20214,-5.39063 -0.42675,-9.523441 2.24609,4.357421 3.5039,6.738281 5.25586,9.545901 L 130.24365,123 h 6.80567 V 89.533203 h -6.08692 v 17.564457 c 0,2.04394 0.13477,5.43554 0.35938,8.66992 -1.45996,-3.34668 -2.91992,-5.88477 -4.11035,-7.79395 L 115.64404,89.533203 h -6.7832 z m 67.36914,0.44922 c 8.26563,0 14.19531,-5.32324 14.19531,-13.92578 v -4.02051 h -13.54394 v 4.7168 h 7.72656 c -0.1123,4.80664 -3.32422,7.86132 -8.35547,7.86132 -5.63769,0 -9.50098,-4.24511 -9.50098,-11.81445 0,-7.591795 3.95313,-11.814452 9.36622,-11.814452 4.06543,0 6.80566,2.201172 7.88378,5.772462 h 6.13184 c -1.0332,-6.581055 -6.71582,-11.140626 -14.08301,-11.140626 -8.75976,0 -15.31836,6.446289 -15.31836,17.227536 0,10.57911 6.26661,17.1377 15.49805,17.1377 z"
       id="text6"
       class="sans"
       style="font-weight:600;font-size:46px;font-family:Inter, Lato, sans-serif;letter-spacing:18;text-anchor:middle;fill:#b5314a"
       aria-label="DETAILING" />
    <path
       d="m -191.05664,186 h 3.09375 l 2.76562,-10.34766 c 0.33985,-1.28906 0.57422,-2.57812 0.83204,-4.00781 0.25781,1.51172 0.52734,2.83594 0.83203,4.00781 L -180.75586,186 h 3.08203 l 4.75781,-17.46094 h -2.83593 l -2.51953,10.00781 c -0.36329,1.52344 -0.69141,3.1875 -0.9961,4.83985 -0.32812,-1.65235 -0.65625,-3.31641 -1.05469,-4.83985 l -2.5664,-10.00781 h -2.92969 l -2.58984,10.00781 c -0.39844,1.53516 -0.73828,3.22266 -1.05469,4.91016 -0.29297,-1.6875 -0.62109,-3.375 -0.99609,-4.91016 l -2.51954,-10.00781 h -2.8125 z m 32.34375,-17.46094 h -2.67188 V 186 h 2.67188 z M -145.8457,186 h 2.70703 v -9.31641 c 0,-0.90234 -0.0937,-2.70703 -0.19922,-4.89843 1.26562,2.34375 1.93359,3.55078 2.78906,4.92187 L -134.6543,186 h 3.09375 v -17.46094 h -2.70703 v 9.9375 c 0,1.00781 0.0469,2.63672 0.17578,4.32422 -0.77343,-1.67578 -1.55859,-3 -2.09765,-3.86719 l -6.57422,-10.39453 h -3.08203 z m 32.83593,0 c 5.3086,0 8.39063,-3.29297 8.39063,-8.75391 0,-5.42578 -3.08203,-8.70703 -8.22656,-8.70703 h -5.84766 V 186 Z m -3.01171,-2.34375 v -12.77344 h 3 c 3.80859,0 5.77734,2.26172 5.77734,6.36328 0,4.13672 -1.96875,6.41016 -5.91797,6.41016 z m 29.507808,2.63672 c 4.101563,0 6.46875,-2.15625 6.46875,-5.1211 0,-3.15234 -2.800781,-4.34765 -5.027344,-4.92187 l -1.699218,-0.44531 c -1.335938,-0.35157 -3.140625,-0.97266 -3.140625,-2.625 0,-1.47657 1.335937,-2.55469 3.457031,-2.55469 1.980469,0 3.398437,0.91406 3.574219,2.50781 h 2.601562 c -0.08203,-2.77734 -2.53125,-4.82812 -6.117187,-4.82812 -3.515625,0 -6.1875,2.0039 -6.1875,5.02734 0,2.39063 1.6875,3.85547 4.546875,4.61719 l 2.039062,0.5625 c 1.875,0.5039 3.316406,1.10156 3.316406,2.625 0,1.6875 -1.628906,2.8125 -3.84375,2.8125 -2.015625,0 -3.703125,-0.89063 -3.855468,-2.80078 h -2.683594 c 0.164062,3.1875 2.625,5.14453 6.550781,5.14453 z m 25.921875,-0.0586 c 4.523438,0 7.863281,-3.375 7.863281,-8.95312 0,-5.60156 -3.339843,-8.97656 -7.863281,-8.97656 -4.535156,0 -7.886719,3.375 -7.886719,8.97656 0,5.57812 3.351563,8.95312 7.886719,8.95312 z m 0,-2.4375 c -3,0 -5.238281,-2.29687 -5.238281,-6.51562 0,-4.23047 2.238281,-6.53906 5.238281,-6.53906 2.976563,0 5.214844,2.29687 5.214844,6.53906 0,4.21875 -2.238281,6.51562 -5.214844,6.51562 z M -40.470703,186 h 2.671875 v -6.59766 h 3.5625 c 0.04687,0 0.105469,0 0.152344,0 L -30.544922,186 h 3.035156 l -3.84375,-7.05469 c 2.121094,-0.79687 3.1875,-2.57812 3.1875,-4.92187 0,-3.22266 -2.003906,-5.48438 -6.046875,-5.48438 h -6.257812 z m 2.671875,-8.88281 v -6.29297 h 3.28125 c 2.578125,0 3.644531,1.23047 3.644531,3.19922 0,1.95703 -1.066406,3.09375 -3.621094,3.09375 z m 41.7421874,3.90234 c 2.0742187,0 3.75,-1.67578 3.75,-3.75 0,-2.07422 -1.6757813,-3.75 -3.75,-3.75 -2.0742188,0 -3.75000003,1.67578 -3.75000003,3.75 0,2.07422 1.67578123,3.75 3.75000003,3.75 z m 40.0078126,5.21484 c 4.523437,0 7.863281,-3.375 7.863281,-8.95312 0,-5.60156 -3.339844,-8.97656 -7.863281,-8.97656 -4.535156,0 -7.886719,3.375 -7.886719,8.97656 0,5.57812 3.351563,8.95312 7.886719,8.95312 z m 0,-2.4375 c -3,0 -5.238281,-2.29687 -5.238281,-6.51562 0,-4.23047 2.238281,-6.53906 5.238281,-6.53906 2.976562,0 5.214844,2.29687 5.214844,6.53906 0,4.21875 -2.238282,6.51562 -5.214844,6.51562 z M 64.072266,186 h 2.707031 v -9.31641 c 0,-0.90234 -0.09375,-2.70703 -0.199219,-4.89843 1.265625,2.34375 1.933594,3.55078 2.789063,4.92187 L 75.263672,186 h 3.09375 v -17.46094 h -2.707031 v 9.9375 c 0,1.00781 0.04687,2.63672 0.175781,4.32422 -0.773438,-1.67578 -1.558594,-3 -2.097656,-3.86719 l -6.574219,-10.39453 h -3.082031 z m 26.273437,-15.16406 h 5.449219 V 186 h 2.683594 v -15.16406 h 5.425784 v -2.29688 H 90.345703 Z M 112.48242,186 h 2.89453 l 1.5586,-4.60547 h 6.86718 L 125.4082,186 h 2.89453 l -6.32812,-17.46094 h -3.28125 z m 5.21485,-6.83203 0.97265,-2.88281 c 0.4336,-1.33594 0.97266,-3.15235 1.65235,-5.64844 0.6914,2.47265 1.21875,4.2539 1.6875,5.64844 l 1.00781,2.88281 z M 139.83398,186 h 2.67188 v -6.59766 h 3.5625 c 0.0469,0 0.10547,0 0.15234,0 L 149.75977,186 h 3.03515 l -3.84375,-7.05469 c 2.1211,-0.79687 3.1875,-2.57812 3.1875,-4.92187 0,-3.22266 -2.0039,-5.48438 -6.04687,-5.48438 h -6.25782 z m 2.67188,-8.88281 v -6.29297 h 3.28125 c 2.57812,0 3.64453,1.23047 3.64453,3.19922 0,1.95703 -1.06641,3.09375 -3.62109,3.09375 z m 24.55078,-8.57813 h -2.67187 V 186 h 2.67187 z m 20.14453,17.69531 c 4.52344,0 7.86328,-3.375 7.86328,-8.95312 0,-5.60156 -3.33984,-8.97656 -7.86328,-8.97656 -4.53515,0 -7.88672,3.375 -7.88672,8.97656 0,5.57812 3.35157,8.95312 7.88672,8.95312 z m 0,-2.4375 c -3,0 -5.23828,-2.29687 -5.23828,-6.51562 0,-4.23047 2.23828,-6.53906 5.23828,-6.53906 2.97656,0 5.21485,2.29687 5.21485,6.53906 0,4.21875 -2.23829,6.51562 -5.21485,6.51562 z"
       id="text7"
       class="sans"
       style="font-weight:500;font-size:24px;font-family:Inter, Lato, sans-serif;letter-spacing:9;text-anchor:middle;opacity:0.9025;fill:#8e2a3c"
       aria-label="WINDSOR • ONTARIO" />
  </g>
</svg>
