<?xml version="1.0" encoding="UTF-8" standalone="no"?>
<svg
   width="800"
   height="800"
   viewBox="0 0 800 800"
   version="1.1"
   id="svg5"
   xmlns="http://www.w3.org/2000/svg"
   xmlns:svg="http://www.w3.org/2000/svg">
  <defs
     id="defs1">
    <style
       id="style1">
      .serif { font-family: 'GFS Didot', 'Noto Serif Display', serif; }
      .sans { font-family: 'Inter', 'Lato', sans-serif; }
    </style>
  </defs>
  <g
     fill="none"
     stroke-linecap="round"
     stroke-linejoin="round"
     id="g2">
    <circle
       cx="400"
       cy="400"
       r="250"
       stroke="#8e2a3c"
       stroke-width="10.00"
       id="circle1" />
    <circle
       cx="400"
       cy="400"
       r="220.00"
       stroke="#8e2a3c"
       stroke-width="3.00"
       opacity="0.95"
       id="circle2" />
    <path
       d="M 202.50 312.50 C 262.50 250.00, 370.00 225.00, 482.50 232.50 C 552.50 240.00, 612.50 270.00, 652.50 310.00"
       stroke="#8e2a3c"
       stroke-width="9.50"
       id="path2" />
  </g>
  <g
     id="g3">
    <path
       d="m 430.855,469.07 c 1.18,1.18 1.475,2.36 1.475,3.54 0,1.475 -1.475,2.655 -4.13,3.245 h -8.26 l -0.295,9.44 c 31.27,-0.59 53.69,-0.59 68.145,0 v -8.85 C 477.17,475.56 470.09,473.2 466.845,469.07 L 406.37,387.06 c 17.11,-1.18 31.27,-6.195 41.89,-15.045 10.915,-9.735 16.52,-22.125 16.52,-37.76 0,-15.635 -5.9,-28.615 -17.7,-37.465 -12.685,-9.735 -31.27,-15.045 -55.165,-15.045 H 302.53 v 9.145 h 27.435 V 475.855 H 302.53 V 485 h 82.01 v -9.145 h -27.435 l -0.59,-87.32 h 17.995 z m 3.835,-135.405 c 0.885,30.975 -16.52,46.315 -52.51,46.315 h -25.665 l 0.59,-89.09 h 31.27 c 29.795,0 45.43,14.16 46.315,42.775 z"
       id="text2"
       class="serif"
       style="font-size:295px;font-family:'GFS Didot', 'Noto Serif Display', serif;opacity:0.9801;fill:#8e2a3c"
       aria-label="R" />
    <path
       d="m 583.425,450.96 c -11.895,11.895 -22.57,20.13 -32.635,24.705 -12.2,5.795 -26.84,8.54 -43.92,8.235 -17.385,-0.305 -31.11,-9.76 -41.48,-27.755 -10.065,-18.3 -15.25,-42.09 -15.25,-71.065 0,-65.575 19.825,-99.125 59.17,-100.955 36.6,-1.525 50.63,14.64 53.375,49.715 h 9.15 v -47.885 c -10.37,-3.965 -17.69,-6.405 -22.265,-7.32 -10.37,-2.135 -24.095,-3.355 -41.175,-3.355 -26.23,0 -48.19,9.76 -65.88,29.585 -18.3,20.435 -27.45,47.275 -27.755,80.215 -0.305,30.195 8.845,56.12 27.145,77.775 18.3,21.35 40.565,32.025 66.49,32.025 17.995,0 32.635,-2.745 44.225,-7.93 12.81,-5.795 24.4,-16.165 35.075,-31.11 z"
       id="text3"
       class="serif"
       style="font-size:305px;font-family:'GFS Didot', 'Noto Serif Display', serif;fill:none;stroke:#8e2a3c;stroke-width:6.5;paint-order:stroke fill markers"
       aria-label="C" />
  </g>
  <g
     transform="translate(400.00,555.00)"
     id="g5">
    <path
       d="M -25.00 -17.50 C -40.00 -2.50, -42.50 17.50, -32.50 35.00 C -15.00 25.00, -10.00 5.00, -12.50 -15.00 Z"
       fill="#8e2a3c"
       opacity="0.98"
       id="path3" />
    <path
       d="M 0 -30.00 C -12.50 -12.50, -12.50 10.00, 0 30.00 C 12.50 10.00, 12.50 -12.50, 0 -30.00 Z"
       fill="#8e2a3c"
       id="path4" />
    <path
       d="M 25.00 -17.50 C 40.00 -2.50, 42.50 17.50, 32.50 35.00 C 15.00 25.00, 10.00 5.00, 12.50 -15.00 Z"
       fill="#8e2a3c"
       opacity="0.98"
       id="path5" />
  </g>
</svg>
